<svg width="17" height="32" viewBox="0 0 17 32" fill="none" xmlns="http://www.w3.org/2000/svg">
<path d="M6.736 28.282V5.8729H13.9343V28.282H6.736Z" fill="#5DC300"/>
<path d="M6.736 28.282H6.536V28.482H6.736V28.282ZM6.736 5.8729V5.6729H6.536V5.8729H6.736ZM13.9343 5.8729H14.1343V5.6729H13.9343V5.8729ZM13.9343 28.282V28.482H14.1343V28.282H13.9343ZM6.936 28.282V5.8729H6.536V28.282H6.936ZM6.736 6.0729H13.9343V5.6729H6.736V6.0729ZM13.7343 5.8729V28.282H14.1343V5.8729H13.7343ZM13.9343 28.082H6.736V28.482H13.9343V28.082Z" fill="black"/>
<path d="M5.736 27.4615V5.05241H12.9343V27.4615H5.736Z" fill="#008DE0"/>
<path d="M5.736 27.4615H5.536V27.6615H5.736V27.4615ZM5.736 5.05241V4.85241H5.536V5.05241H5.736ZM12.9343 5.05241H13.1343V4.85241H12.9343V5.05241ZM12.9343 27.4615V27.6615H13.1343V27.4615H12.9343ZM5.936 27.4615V5.05241H5.536V27.4615H5.936ZM5.736 5.25241H12.9343V4.85241H5.736V5.25241ZM12.7343 5.05241V27.4615H13.1343V5.05241H12.7343ZM12.9343 27.2615H5.736V27.6615H12.9343V27.2615Z" fill="black"/>
<path d="M4.736 26.6411V4.23191H11.9343V26.6411H4.736Z" fill="#FFB200"/>
<path d="M4.736 26.6411H4.536V26.8411H4.736V26.6411ZM4.736 4.23191V4.03191H4.536V4.23191H4.736ZM11.9343 4.23191H12.1343V4.03191H11.9343V4.23191ZM11.9343 26.6411V26.8411H12.1343V26.6411H11.9343ZM4.936 26.6411V4.23191H4.536V26.6411H4.936ZM4.736 4.43191H11.9343V4.03191H4.736V4.43191ZM11.7343 4.23191V26.6411H12.1343V4.23191H11.7343ZM11.9343 26.4411H4.736V26.8411H11.9343V26.4411Z" fill="black"/>
<path d="M4.736 26.6411V4.23191H11.9343V26.6411H4.736Z" fill="#FF7A00"/>
<path d="M4.736 26.6411H4.536V26.8411H4.736V26.6411ZM4.736 4.23191V4.03191H4.536V4.23191H4.736ZM11.9343 4.23191H12.1343V4.03191H11.9343V4.23191ZM11.9343 26.6411V26.8411H12.1343V26.6411H11.9343ZM4.936 26.6411V4.23191H4.536V26.6411H4.936ZM4.736 4.43191H11.9343V4.03191H4.736V4.43191ZM11.7343 4.23191V26.6411H12.1343V4.23191H11.7343ZM11.9343 26.4411H4.736V26.8411H11.9343V26.4411Z" fill="black"/>
<path d="M3.736 25.8205V3.41135H10.9343V25.8205H3.736Z" fill="#FF1103"/>
<path d="M3.736 25.8205H3.536V26.0205H3.736V25.8205ZM3.736 3.41135V3.21135H3.536V3.41135H3.736ZM10.9343 3.41135H11.1343V3.21135H10.9343V3.41135ZM10.9343 25.8205V26.0205H11.1343V25.8205H10.9343ZM3.936 25.8205V3.41135H3.536V25.8205H3.936ZM3.736 3.61135H10.9343V3.21135H3.736V3.61135ZM10.7343 3.41135V25.8205H11.1343V3.41135H10.7343ZM10.9343 25.6205H3.736V26.0205H10.9343V25.6205Z" fill="black"/>
<path d="M2.736 25V2.59086H9.93429V25H2.736Z" fill="#FCFCFC"/>
<path d="M2.736 25H2.536V25.2H2.736V25ZM2.736 2.59086V2.39086H2.536V2.59086H2.736ZM9.93429 2.59086H10.1343V2.39086H9.93429V2.59086ZM9.93429 25V25.2H10.1343V25H9.93429ZM2.936 25V2.59086H2.536V25H2.936ZM2.736 2.79086H9.93429V2.39086H2.736V2.79086ZM9.73429 2.59086V25H10.1343V2.59086H9.73429ZM9.93429 24.8H2.736V25.2H9.93429V24.8Z" fill="black"/>
</svg>
