<svg width="32" height="32" viewBox="0 0 32 32" fill="none" xmlns="http://www.w3.org/2000/svg">
<g clip-path="url(#clip0_94_91)">
<path d="M15.1823 8.78286V4.38572H21.664V8.78286H15.1823ZM15.1823 28V10.8023H21.664V28H15.1823Z" fill="#5DC300"/>
<path d="M15.1823 8.78286H14.9823V8.98286H15.1823V8.78286ZM15.1823 4.38572V4.18572H14.9823V4.38572H15.1823ZM21.664 4.38572H21.864V4.18572H21.664V4.38572ZM21.664 8.78286V8.98286H21.864V8.78286H21.664ZM15.1823 28H14.9823V28.2H15.1823V28ZM15.1823 10.8023V10.6023H14.9823V10.8023H15.1823ZM21.664 10.8023H21.864V10.6023H21.664V10.8023ZM21.664 28V28.2H21.864V28H21.664ZM15.3823 8.78286V4.38572H14.9823V8.78286H15.3823ZM15.1823 4.58572H21.664V4.18572H15.1823V4.58572ZM21.464 4.38572V8.78286H21.864V4.38572H21.464ZM21.664 8.58286H15.1823V8.98286H21.664V8.58286ZM15.3823 28V10.8023H14.9823V28H15.3823ZM15.1823 11.0023H21.664V10.6023H15.1823V11.0023ZM21.464 10.8023V28H21.864V10.8023H21.464ZM21.664 27.8H15.1823V28.2H21.664V27.8Z" fill="black"/>
<path d="M14.1823 8.78286V4.38572H20.664V8.78286H14.1823ZM14.1823 28V10.8023H20.664V28H14.1823Z" fill="#008DE0"/>
<path d="M14.1823 8.78286H13.9823V8.98286H14.1823V8.78286ZM14.1823 4.38572V4.18572H13.9823V4.38572H14.1823ZM20.664 4.38572H20.864V4.18572H20.664V4.38572ZM20.664 8.78286V8.98286H20.864V8.78286H20.664ZM14.1823 28H13.9823V28.2H14.1823V28ZM14.1823 10.8023V10.6023H13.9823V10.8023H14.1823ZM20.664 10.8023H20.864V10.6023H20.664V10.8023ZM20.664 28V28.2H20.864V28H20.664ZM14.3823 8.78286V4.38572H13.9823V8.78286H14.3823ZM14.1823 4.58572H20.664V4.18572H14.1823V4.58572ZM20.464 4.38572V8.78286H20.864V4.38572H20.464ZM20.664 8.58286H14.1823V8.98286H20.664V8.58286ZM14.3823 28V10.8023H13.9823V28H14.3823ZM14.1823 11.0023H20.664V10.6023H14.1823V11.0023ZM20.464 10.8023V28H20.864V10.8023H20.464ZM20.664 27.8H14.1823V28.2H20.664V27.8Z" fill="black"/>
<path d="M13.1823 8.78286V4.38572H19.664V8.78286H13.1823ZM13.1823 28V10.8023H19.664V28H13.1823Z" fill="#FFB200"/>
<path d="M13.1823 8.78286H12.9823V8.98286H13.1823V8.78286ZM13.1823 4.38572V4.18572H12.9823V4.38572H13.1823ZM19.664 4.38572H19.864V4.18572H19.664V4.38572ZM19.664 8.78286V8.98286H19.864V8.78286H19.664ZM13.1823 28H12.9823V28.2H13.1823V28ZM13.1823 10.8023V10.6023H12.9823V10.8023H13.1823ZM19.664 10.8023H19.864V10.6023H19.664V10.8023ZM19.664 28V28.2H19.864V28H19.664ZM13.3823 8.78286V4.38572H12.9823V8.78286H13.3823ZM13.1823 4.58572H19.664V4.18572H13.1823V4.58572ZM19.464 4.38572V8.78286H19.864V4.38572H19.464ZM19.664 8.58286H13.1823V8.98286H19.664V8.58286ZM13.3823 28V10.8023H12.9823V28H13.3823ZM13.1823 11.0023H19.664V10.6023H13.1823V11.0023ZM19.464 10.8023V28H19.864V10.8023H19.464ZM19.664 27.8H13.1823V28.2H19.664V27.8Z" fill="black"/>
<path d="M12.1823 8.78286V4.38572H18.664V8.78286H12.1823ZM12.1823 28V10.8023H18.664V28H12.1823Z" fill="#FF7A00"/>
<path d="M12.1823 8.78286H11.9823V8.98286H12.1823V8.78286ZM12.1823 4.38572V4.18572H11.9823V4.38572H12.1823ZM18.664 4.38572H18.864V4.18572H18.664V4.38572ZM18.664 8.78286V8.98286H18.864V8.78286H18.664ZM12.1823 28H11.9823V28.2H12.1823V28ZM12.1823 10.8023V10.6023H11.9823V10.8023H12.1823ZM18.664 10.8023H18.864V10.6023H18.664V10.8023ZM18.664 28V28.2H18.864V28H18.664ZM12.3823 8.78286V4.38572H11.9823V8.78286H12.3823ZM12.1823 4.58572H18.664V4.18572H12.1823V4.58572ZM18.464 4.38572V8.78286H18.864V4.38572H18.464ZM18.664 8.58286H12.1823V8.98286H18.664V8.58286ZM12.3823 28V10.8023H11.9823V28H12.3823ZM12.1823 11.0023H18.664V10.6023H12.1823V11.0023ZM18.464 10.8023V28H18.864V10.8023H18.464ZM18.664 27.8H12.1823V28.2H18.664V27.8Z" fill="black"/>
<path d="M11.1823 8.78286V4.38572H17.664V8.78286H11.1823ZM11.1823 28V10.8023H17.664V28H11.1823Z" fill="#FF1103"/>
<path d="M11.1823 8.78286H10.9823V8.98286H11.1823V8.78286ZM11.1823 4.38572V4.18572H10.9823V4.38572H11.1823ZM17.664 4.38572H17.864V4.18572H17.664V4.38572ZM17.664 8.78286V8.98286H17.864V8.78286H17.664ZM11.1823 28H10.9823V28.2H11.1823V28ZM11.1823 10.8023V10.6023H10.9823V10.8023H11.1823ZM17.664 10.8023H17.864V10.6023H17.664V10.8023ZM17.664 28V28.2H17.864V28H17.664ZM11.3823 8.78286V4.38572H10.9823V8.78286H11.3823ZM11.1823 4.58572H17.664V4.18572H11.1823V4.58572ZM17.464 4.38572V8.78286H17.864V4.38572H17.464ZM17.664 8.58286H11.1823V8.98286H17.664V8.58286ZM11.3823 28V10.8023H10.9823V28H11.3823ZM11.1823 11.0023H17.664V10.6023H11.1823V11.0023ZM17.464 10.8023V28H17.864V10.8023H17.464ZM17.664 27.8H11.1823V28.2H17.664V27.8Z" fill="black"/>
<path d="M10.1823 8.78286V4.38572H16.664V8.78286H10.1823ZM10.1823 28V10.8023H16.664V28H10.1823Z" fill="#FCFCFC"/>
<path d="M10.1823 8.78286H9.98229V8.98286H10.1823V8.78286ZM10.1823 4.38572V4.18572H9.98229V4.38572H10.1823ZM16.664 4.38572H16.864V4.18572H16.664V4.38572ZM16.664 8.78286V8.98286H16.864V8.78286H16.664ZM10.1823 28H9.98229V28.2H10.1823V28ZM10.1823 10.8023V10.6023H9.98229V10.8023H10.1823ZM16.664 10.8023H16.864V10.6023H16.664V10.8023ZM16.664 28V28.2H16.864V28H16.664ZM10.3823 8.78286V4.38572H9.98229V8.78286H10.3823ZM10.1823 4.58572H16.664V4.18572H10.1823V4.58572ZM16.464 4.38572V8.78286H16.864V4.38572H16.464ZM16.664 8.58286H10.1823V8.98286H16.664V8.58286ZM10.3823 28V10.8023H9.98229V28H10.3823ZM10.1823 11.0023H16.664V10.6023H10.1823V11.0023ZM16.464 10.8023V28H16.864V10.8023H16.464ZM16.664 27.8H10.1823V28.2H16.664V27.8Z" fill="black"/>
</g>
<defs>
<clipPath id="clip0_94_91">
<rect width="32" height="32" fill="white"/>
</clipPath>
</defs>
</svg>
